<svg width="128" height="128" viewBox="0 0 128 128" fill="none" xmlns="http://www.w3.org/2000/svg">
<g clip-path="url(#clip0_14_10)">
<path d="M111.936 16.922C99.7134 -0.108474 75.3811 -5.09831 57.8888 5.64068L27.0529 24.7322C18.6431 29.8305 12.8123 38.1831 11.1304 47.6203C9.67266 55.539 10.9061 63.6746 14.8307 70.7254C12.1395 74.6305 10.3454 78.9695 9.56053 83.5254C7.76644 93.1797 10.1212 103.159 15.952 111.078C28.2863 128.108 52.5065 133.098 69.9989 122.359L100.835 103.376C109.245 98.278 115.075 89.9254 116.757 80.4881C118.215 72.5695 116.982 64.4339 113.057 57.3831C115.748 53.478 117.542 49.139 118.327 44.583C120.233 34.8203 117.879 24.8407 111.936 16.922Z" fill="#DDDDDD"/>
<path d="M54.8614 112.705C44.8818 115.2 34.4536 111.403 28.6229 103.268C25.0347 98.4949 23.6891 92.5288 24.6983 86.6712C24.9226 85.6949 25.1468 84.8271 25.3711 83.8508L25.9317 82.1152L27.5016 83.2C31.2019 85.8034 35.2386 87.7559 39.6116 89.0576L40.733 89.383L40.6208 90.4678C40.5087 91.9864 40.9572 93.6135 41.8543 94.9152C43.6483 97.4102 46.788 98.6034 49.8155 97.8441C50.4883 97.6271 51.1611 97.4102 51.7217 97.0847L82.4455 78.1017C84.0153 77.1254 85.0245 75.7152 85.3609 73.9797C85.6973 72.2441 85.2487 70.4 84.2396 68.9898C82.4455 66.4949 79.3058 65.4102 76.2783 66.1695C75.6055 66.3864 74.9327 66.6034 74.3721 66.9288L62.5984 74.1966C60.6922 75.3898 58.5617 76.2576 56.3191 76.8C46.3395 79.2949 35.9113 75.4983 30.0806 67.3627C26.6045 62.5898 25.1468 56.6237 26.2681 50.7661C27.2773 45.1254 30.8655 40.0271 35.9113 36.9898L66.7472 18.0068C68.6534 16.8136 70.7839 15.9458 73.0265 15.2949C83.0061 12.8 93.4343 16.5966 99.2651 24.7322C102.853 29.5051 104.199 35.4712 103.19 41.3288C102.965 42.3051 102.741 43.1729 102.405 44.1492L101.844 45.8847L100.274 44.8C96.5739 42.1966 92.5372 40.2441 88.1641 38.9424L87.0428 38.6169L87.155 37.5322C87.2671 36.0136 86.8186 34.3864 85.9215 33.0847C84.1274 30.5898 80.9878 29.5051 77.9603 30.2644C77.2875 30.4814 76.6147 30.6983 76.054 31.0237L45.3303 50.0068C43.7605 50.983 42.7513 52.3932 42.4149 54.1288C42.0785 55.8644 42.527 57.7085 43.5362 59.1186C45.3303 61.6136 48.47 62.6983 51.4975 61.939C52.1703 61.722 52.843 61.5051 53.4037 61.1797L65.1774 53.9119C67.0836 52.7186 69.2141 51.8508 71.4567 51.2C81.4363 48.7051 91.8644 52.5017 97.6952 60.6373C101.283 65.4102 102.629 71.3763 101.62 77.2339C100.611 82.8746 97.0224 87.9729 91.9766 91.0102L61.1407 109.993C59.2345 111.186 57.104 112.054 54.8614 112.705Z" fill="white"/>
</g>
<defs>
<clipPath id="clip0_14_10">
<rect width="110" height="128" fill="white" transform="translate(9)"/>
</clipPath>
</defs>
</svg>
